P3
8 6
255
0 0 0 0 0 0 255 140 0 255 140 0 0 0 0 0 0 0 0 0 0 0 0 0 
0 0 0 0 0 0 255 140 0 255 140 0 0 0 0 0 0 0 0 0 0 0 0 0 
0 255 0 0 255 0 255 255 255 255 255 255 0 191 255 0 191 255 255 255 0 255 255 0 
0 255 0 0 255 0 255 255 255 255 255 255 0 191 255 0 191 255 255 255 0 255 255 0 
0 0 0 0 0 0 255 0 0 255 0 0 0 0 0 0 0 0 0 0 0 0 0 0 
0 0 0 0 0 0 255 0 0 255 0 0 0 0 0 0 0 0 0 0 0 0 0 0 
